Coordinates
version=1
nRows=18
nColumns=22
inDegrees=yes

Units are S.I. units (second, meters, Newtons, ...)
If the header above contains a line with 'inDegrees', this indicates whether rotational values are in degrees (yes) or radians (no).

endheader
time	pelvis_tilt	pelvis_list	pelvis_rotation	pelvis_tx	pelvis_ty	pelvis_tz	hip_flexion_r	hip_adduction_r	hip_rotation_r	knee_angle_r	ankle_angle_r	subtalar_angle_r	hip_flexion_l	hip_adduction_l	hip_rotation_l	knee_angle_l	ankle_angle_l	subtalar_angle_l	lumbar_extension	lumbar_bending	lumbar_rotation
      1.99000000	      1.77052708	     -8.17872209	     57.11129382	      0.96095353	      0.99536224	      0.68510259	     24.67193365	      3.03509570	     -0.26048700	    -21.65679319	      2.96752301	     12.07295494	     -1.18530789	     -5.46149295	     -3.42976773	    -38.96151427	     -1.42039583	     -3.46565790	     -0.43347863	      2.46826564	     -8.94514402
      2.00000000	      2.09016189	     -8.33122350	     57.89793376	      0.96767060	      0.99692849	      0.67723500	     23.80480643	      3.27561695	     -0.82332990	    -21.40247531	      3.45123358	     11.80533343	      0.10989645	     -6.36559370	     -4.34502886	    -41.31496437	     -1.45924848	     -3.66388242	     -0.39497337	      2.68471383	     -8.85475678
      2.01000000	      2.38519299	     -8.45080337	     58.68913920	      0.97413951	      0.99836679	      0.66940493	     22.94203022	      3.47911673	     -1.39609111	    -21.14312612	      3.91282860	     11.57599354	      1.43261812	     -7.21218967	     -5.13829018	    -43.57704235	     -1.10661026	     -3.97773583	     -0.38419404	      2.85727994	     -8.72464499
      2.02000000	      2.64699319	     -8.52538583	     59.47581191	      0.98032244	      0.99969883	      0.66159670	     22.08339186	      3.63394885	     -1.95041422	    -20.89573342	      4.37253081	     11.40279623	      2.76463601	     -7.95642331	     -5.78945521	    -45.71418812	     -0.46010731	     -4.38094816	     -0.41194007	      2.98124116	     -8.54551869
      2.03000000	      2.86330463	     -8.54522811	     60.23811250	      0.98624741	      1.00094809	      0.65381970	     21.22636145	      3.73127378	     -2.47873190	    -20.66501750	      4.83667604	     11.28356298	      4.08957297	     -8.55898473	     -6.30209894	    -47.70012741	      0.37806365	     -4.82631084	     -0.48058349	      3.03639419	     -8.31244184
      2.04000000	      3.02732349	     -8.51165918	     60.97388417	      0.99187964	      1.00212816	      0.64606567	     20.37690942	      3.76194187	     -2.99410478	    -20.45730294	      5.29993639	     11.20037987	      5.40380842	     -9.00351909	     -6.70548742	    -49.51453234	      1.29980208	     -5.27383039	     -0.58675222	      3.02870200	     -8.02813883
      2.05000000	      3.13980891	     -8.41927434	     61.68052733	      0.99724121	      1.00326816	      0.63836029	     19.52008188	      3.72930719	     -3.47707114	    -20.26012639	      5.75521847	     11.14224374	      6.69338909	     -9.28211357	     -7.01392333	    -51.14366026	      2.23697950	     -5.64732428	     -0.74084502	      2.95125103	     -7.69595642
      2.06000000	      3.20741971	     -8.28271329	     62.35375429	      1.00235746	      1.00436662	      0.63071793	     18.66410731	      3.64711112	     -3.95240654	    -20.07346223	      6.19155468	     11.08917760	      7.96254601	     -9.41550585	     -7.26504071	    -52.58433873	      3.11630897	     -5.92583409	     -0.93055870	      2.81973234	     -7.32193669
      2.07000000	      3.24324634	     -8.11332310	     62.99737413	      1.00725035	      1.00543033	      0.62314189	     17.80311757	      3.53343509	     -4.42147745	    -19.88203973	      6.60097383	     11.03174577	      9.20748742	     -9.42999185	     -7.48144076	    -53.83037059	      3.91695095	     -6.08421977	     -1.14801207	      2.65088981	     -6.91519058
      2.08000000	      3.25927778	     -7.92453200	     63.61797965	      1.01192888	      1.00645566	      0.61563367	     16.93467808	      3.40512402	     -4.88420131	    -19.67177269	      6.97433198	     10.96738075	     10.43136260	     -9.35468225	     -7.67815059	    -54.87952435	      4.62598610	     -6.12522568	     -1.38717203	      2.46395992	     -6.48021896
      2.09000000	      3.26913559	     -7.73246924	     64.21886494	      1.01642371	      1.00742854	      0.60816776	     16.06036695	      3.28018594	     -5.35546604	    -19.43499566	      7.31213283	     10.89543271	     11.63707295	     -9.22559536	     -7.87408836	    -55.73197542	      5.25394174	     -6.06177132	     -1.62967995	      2.27846302	     -6.03348843
      2.10000000	      3.28089382	     -7.54710802	     64.80538879	      1.02074732	      1.00833810	      0.60072524	     15.17784743	      3.16989600	     -5.83151753	    -19.15940777	      7.60951554	     10.81797804	     12.82451853	     -9.06933630	     -8.08575967	    -56.38391708	      5.80843977	     -5.89682136	     -1.86742607	      2.10675000	     -5.57830502
      2.11000000	      3.29722538	     -7.37154832	     65.36946517	      1.02491782	      1.00917710	      0.59331508	     14.29224960	      3.08167443	     -6.27741402	    -18.85340619	      7.87881673	     10.74832022	     13.98918674	     -8.89961041	     -8.32780040	    -56.83237200	      6.30794956	     -5.69847507	     -2.10242533	      1.95127510	     -5.10436836
      2.12000000	      3.32149846	     -7.21530476	     65.92412249	      1.02895081	      1.00993053	      0.58588686	     13.40230518	      3.01805797	     -6.71794627	    -18.50557974	      8.11468230	     10.68860857	     15.13432148	     -8.73471269	     -8.60601350	    -57.07504050	      6.75225993	     -5.44526545	     -2.31594425	      1.81837623	     -4.63507695
      2.13000000	      3.34609248	     -7.08055588	     66.46643104	      1.03286564	      1.01058645	      0.57844767	     12.51825550	      2.97493571	     -7.13880377	    -18.12523630	      8.33608073	     10.64634472	     16.25846635	     -8.57684728	     -8.93356601	    -57.10611981	      7.15018116	     -5.16899173	     -2.50494351	      1.69699774	     -4.16875525
      2.14000000	      3.36990324	     -6.96507010	     67.00951689	      1.03662909	      1.01113985	      0.57100978	     11.64525766	      2.94558613	     -7.56187162	    -17.72140822	      8.55207538	     10.62601156	     17.36084950	     -8.41201495	     -9.27642717	    -56.92597189	      7.50244577	     -4.90617503	     -2.67918643	      1.58386116	     -3.70155740
      2.15000000	      3.38670574	     -6.86057931	     67.55915185	      1.04026030	      1.01158720	      0.56350565	     10.77622199	      2.91923055	     -8.00443501	    -17.30058269	      8.77321124	     10.62489771	     18.42592275	     -8.24052771	     -9.65318110	    -56.53726914	      7.81054427	     -4.63247867	     -2.82954768	      1.46846791	     -3.24770152
      2.16000000	      3.38745466	     -6.76490516	     68.10717766	      1.04377316	      1.01192998	      0.55596204	      9.91337694	      2.88976823	     -8.45118380	    -16.85925842	      9.00860687	     10.64451640	     19.44718489	     -8.05752247	    -10.07246977	    -55.93670847	      8.07178496	     -4.34071556	     -2.96224124	      1.33787359	     -2.81056429
